<svg height="512" viewBox="0 0 400 400" width="512" xmlns="http://www.w3.org/2000/svg" xmlns:xlink="http://www.w3.org/1999/xlink"><linearGradient id="linear-gradient" gradientUnits="userSpaceOnUse" x1="166.14" x2="215.06" y1="143.76" y2="192.67"><stop offset="0" stop-opacity=".25"/><stop offset="1" stop-opacity="0"/></linearGradient><linearGradient id="linear-gradient-2" x1="179.07" x2="363.34" xlink:href="#linear-gradient" y1="196.74" y2="381.01"/><g id="Layer_2" data-name="Layer 2"><g id="Layer_1-2" data-name="Layer 1"><g id="R"><rect id="Background" fill="#4abeed" height="400" rx="95" width="400"/><g id="Shadow"><path d="m194 194.38h-25.72v-52.76h25.72c23.75 0 30.5 6.26 30.5 27 0 10.26-2 17.26-6.25 20.76-4.25 3.24-12.25 5-24.25 5z" fill="url(#linear-gradient)"/><path d="m400 260.29v44.71a95 95 0 0 1 -95 95h-80l-102-101.95a4.65 4.65 0 0 0 2.77.57h38.75c3 0 3.75-.74 3.75-4v-65.74h16l40.73 64.24c2.75 4 4.75 5.5 10 5.5h39c3.75 0 5-2.24 3-5l-42.5-67.74c27-6 37-21.76 37-58.76 0-23-4.52-39.26-13.77-49.07z" fill="url(#linear-gradient-2)"/></g><path id="R-2" d="m255.53 115.88c10.75 9.5 16 26.5 16 51.24 0 37-10 52.76-37 58.76l42.47 67.74c2 2.76.75 5-3 5h-39c-5.25 0-7.25-1.5-10-5.5l-40.75-64.24h-16v65.74c0 3.26-.75 4-3.75 4h-38.72c-3 0-3.75-.74-3.75-4v-186.74c0-2.26 1.25-3.26 3.75-3.5 24.5-2 49-3 73.25-3 26.97 0 45.75 4.74 56.5 14.5zm-87.25 25.74v52.76h25.72c12 0 20-1.76 24.25-5 4.25-3.5 6.25-10.5 6.25-20.76 0-20.74-6.75-27-30.5-27z" fill="#fff" data-name="R"/></g></g></g></svg>